Coordinates
version=1
nRows=32
nColumns=22
inDegrees=yes

Units are S.I. units (second, meters, Newtons, ...)
If the header above contains a line with 'inDegrees', this indicates whether rotational values are in degrees (yes) or radians (no).

endheader
time	pelvis_tilt	pelvis_list	pelvis_rotation	pelvis_tx	pelvis_ty	pelvis_tz	hip_flexion_r	hip_adduction_r	hip_rotation_r	knee_angle_r	ankle_angle_r	subtalar_angle_r	hip_flexion_l	hip_adduction_l	hip_rotation_l	knee_angle_l	ankle_angle_l	subtalar_angle_l	lumbar_extension	lumbar_bending	lumbar_rotation
      3.03000000	      2.76430006	     -2.39723084	     -4.30133168	      0.07434140	      0.91305552	      0.18717249	     -0.60724957	      7.04868452	     -2.58832506	    -24.24645443	     15.24347233	     -6.80548793	     29.09727821	     -7.77317098	     -8.35931861	    -41.38029479	      1.54717411	      5.87216778	    -14.16561369	     -3.12315945	      7.05590060
      3.04000000	      2.76701772	     -2.29363652	     -4.26403030	      0.06706580	      0.91472946	      0.18736098	     -0.28103648	      7.02144894	     -2.63098938	    -23.85098256	     14.70151926	     -7.08546841	     28.81867901	     -7.79253269	     -8.17845847	    -43.27641263	      2.24420017	      4.78448281	    -14.02040116	     -3.24215769	      6.89677667
      3.05000000	      2.72647208	     -2.19704541	     -4.25643733	      0.05991376	      0.91625970	      0.18753021	      0.05513670	      7.00132554	     -2.64553294	    -23.40975622	     14.16665855	     -7.38605856	     28.49403195	     -7.81998215	     -8.01136178	    -45.13568833	      2.86163094	      3.81135972	    -13.80832726	     -3.34767568	      6.76338813
      3.06000000	      2.66449183	     -2.12554666	     -4.26956597	      0.05286940	      0.91765150	      0.18767924	      0.38413521	      7.00896563	     -2.62672101	    -22.93521721	     13.62814962	     -7.68494719	     28.10327388	     -7.86749008	     -7.84290048	    -46.95292557	      3.39988276	      2.99608786	    -13.56161692	     -3.41967774	      6.64029681
      3.07000000	      2.58158028	     -2.05338601	     -4.30432856	      0.04596115	      0.91890342	      0.18777725	      0.71089362	      7.01005671	     -2.59830800	    -22.43647845	     13.10157282	     -7.99784705	     27.63516231	     -7.90513736	     -7.69577240	    -48.70319950	      3.85448751	      2.25341687	    -13.27299904	     -3.48357642	      6.54821767
      3.08000000	      2.51594231	     -2.02721860	     -4.34689147	      0.03917820	      0.92005578	      0.18782209	      0.99196370	      7.05288643	     -2.56936639	    -21.91267617	     12.56056752	     -8.24566666	     27.05456689	     -7.97177641	     -7.53876651	    -50.38735621	      4.23371795	      1.74099434	    -12.99672625	     -3.48976954	      6.48202520
      3.09000000	      2.45191749	     -2.01042522	     -4.39388985	      0.03249682	      0.92108449	      0.18778438	      1.26581650	      7.09827457	     -2.52068892	    -21.39839746	     12.03229335	     -8.49476247	     26.37731251	     -8.02569087	     -7.39033667	    -51.98643176	      4.52733692	      1.25223149	    -12.71506334	     -3.47224392	      6.40079782
      3.10000000	      2.40083594	     -1.99886391	     -4.43720532	      0.02592233	      0.92201462	      0.18765863	      1.51942516	      7.14097821	     -2.45403534	    -20.89098438	     11.53766867	     -8.73981778	     25.58652139	     -8.05404025	     -7.24265968	    -53.48020748	      4.75166443	      0.76665979	    -12.44150247	     -3.43953053	      6.30057969
      3.11000000	      2.38344330	     -2.06125590	     -4.46332708	      0.01944558	      0.92286445	      0.18745690	      1.72873454	      7.24824367	     -2.42159354	    -20.39022243	     11.01148284	     -8.84859227	     24.67402166	     -8.13720925	     -7.08028839	    -54.88721865	      4.89177219	      0.55375363	    -12.20812372	     -3.31280630	      6.19405177
      3.12000000	      2.38956828	     -2.15657149	     -4.47196377	      0.01305663	      0.92363725	      0.18716819	      1.91003941	      7.37874613	     -2.39834073	    -19.90119778	     10.50715786	     -8.93338197	     23.64479019	     -8.22465574	     -6.91166600	    -56.17938205	      4.97735158	      0.33817237	    -12.00176940	     -3.13979804	      6.05569062
      3.13000000	      2.41672992	     -2.29040173	     -4.45632517	      0.00674585	      0.92433629	      0.18679552	      2.07067338	      7.53660422	     -2.40199889	    -19.43015357	     10.00699085	     -8.96080599	     22.50639045	     -8.32735740	     -6.73954135	    -57.35118902	      5.00279544	      0.18435366	    -11.82066790	     -2.91531790	      5.88366235
      3.14000000	      2.43717244	     -2.45245598	     -4.41677157	      0.00048073	      0.92493598	      0.18634772	      2.25354469	      7.71189138	     -2.44928534	    -18.99325564	      9.46677374	     -8.94269295	     21.29629967	     -8.43506984	     -6.55695265	    -58.39542599	      4.94056138	      0.10720693	    -11.63436949	     -2.65347733	      5.68916613
      3.15000000	      2.51945829	     -2.66863628	     -4.34446354	     -0.00567787	      0.92552433	      0.18583636	      2.35512175	      7.93111973	     -2.51823095	    -18.55003271	      9.00825068	     -8.84267817	     19.93202389	     -8.59106124	     -6.39843215	    -59.30221346	      4.88254858	      0.07299231	    -11.51707509	     -2.32431549	      5.41300748
      3.16000000	      2.57245175	     -2.90041956	     -4.25057425	     -0.01182401	      0.92599266	      0.18527523	      2.51260389	      8.15817627	     -2.64108938	    -18.15085578	      8.50741606	     -8.71757517	     18.53457448	     -8.74911075	     -6.24042572	    -60.07423182	      4.71820930	      0.10815719	    -11.36921708	     -1.97711241	      5.11460047
      3.17000000	      2.59831207	     -3.15133410	     -4.12917400	     -0.01792674	      0.92634651	      0.18467636	      2.70287683	      8.39946081	     -2.80660086	    -17.76107508	      8.00501753	     -8.58210793	     17.10510783	     -8.92495367	     -6.09876498	    -60.70719588	      4.47237218	      0.18976841	    -11.18605414	     -1.60722607	      4.76208045
      3.18000000	      2.64256274	     -3.41045852	     -4.00091278	     -0.02401450	      0.92665230	      0.18404876	      2.90212410	      8.63757387	     -3.01259779	    -17.42973361	      7.51297092	     -8.39135630	     15.58889736	     -9.10674054	     -5.99616773	    -61.18421033	      4.15673553	      0.35541712	    -11.02441690	     -1.23183552	      4.39122370
      3.19000000	      2.60612177	     -3.67857934	     -3.83698856	     -0.03009364	      0.92677807	      0.18339170	      3.18405121	      8.89036779	     -3.24035482	    -17.08195507	      7.01043611	     -8.26126979	     14.12930934	     -9.29780811	     -5.89424795	    -61.53233835	      3.70913767	      0.49235776	    -10.76530540	     -0.84662605	      3.94367479
      3.20000000	      2.58886174	     -3.94637362	     -3.67124044	     -0.03618263	      0.92686470	      0.18270000	      3.48219229	      9.13022844	     -3.50019433	    -16.80453356	      6.51304386	     -8.08479496	     12.59817688	     -9.49121901	     -5.84519702	    -61.72059214	      3.16028682	      0.71050982	    -10.52987667	     -0.46525878	      3.48608852
      3.21000000	      2.51433323	     -4.20232913	     -3.48952742	     -0.04228622	      0.92681614	      0.18199792	      3.85276868	      9.35983385	     -3.76672025	    -16.53875175	      6.02085352	     -7.94212019	     11.10439377	     -9.67781842	     -5.82673286	    -61.76330245	      2.45742984	      0.89564833	    -10.22421175	     -0.10519271	      2.97831611
      3.22000000	      2.42004718	     -4.44763174	     -3.30028598	     -0.04841382	      0.92669281	      0.18126760	      4.26411996	      9.57326419	     -4.04697655	    -16.30126909	      5.53155304	     -7.79642274	      9.60766854	     -9.85396811	     -5.84426934	    -61.65035939	      1.59906206	      1.08072973	     -9.89541314	      0.23630895	      2.45070694
      3.23000000	      2.29750831	     -4.67292817	     -3.10871786	     -0.05459226	      0.92647918	      0.18049510	      4.73421008	      9.76067567	     -4.32580454	    -16.10699353	      5.05460951	     -7.66092647	      8.13032947	    -10.01058370	     -5.90622878	    -61.38750077	      0.58340096	      1.23084336	     -9.53740877	      0.55131186	      1.90135525
      3.24000000	      2.15786050	     -4.87873493	     -2.91288198	     -0.06082673	      0.92619753	      0.17969271	      5.24844909	      9.92286553	     -4.60676809	    -15.94935860	      4.58973473	     -7.52515461	      6.66574425	    -10.14739329	     -6.00546204	    -60.96916454	     -0.57634634	      1.34815176	     -9.16403642	      0.83332040	      1.33671819
      3.25000000	      2.00900272	     -5.06213392	     -2.71997624	     -0.06712493	      0.92585992	      0.17885398	      5.80138312	     10.05389098	     -4.90052192	    -15.83345934	      4.14408077	     -7.37942967	      5.21042169	    -10.26098537	     -6.14989926	    -60.39409606	     -1.85356133	      1.43532650	     -8.78625547	      1.08094928	      0.77920499
      3.26000000	      1.80218638	     -5.21738429	     -2.52631285	     -0.07354383	      0.92538916	      0.17797707	      6.45063125	     10.15462129	     -5.16048594	    -15.76124086	      3.71295275	     -7.30376176	      3.84582279	    -10.34652225	     -6.32202010	    -59.69020815	     -3.22196632	      1.41487132	     -8.35244202	      1.29041284	      0.20044167
      3.27000000	      1.66643247	     -5.34002715	     -2.32013882	     -0.08007991	      0.92497764	      0.17702041	      7.06455161	     10.20533029	     -5.44441642	    -15.74915047	      3.29629339	     -7.14385980	      2.41667220	    -10.38221279	     -6.50886960	    -58.82025495	     -4.59699642	      1.42230107	     -8.02389005	      1.45308966	     -0.40862462
      3.28000000	      1.47176656	     -5.43658225	     -2.11939900	     -0.08673211	      0.92443143	      0.17602329	      7.76261894	     10.22605391	     -5.71126502	    -15.75569920	      2.89629663	     -7.04681250	      1.08830236	    -10.39315434	     -6.72285673	    -57.82741385	     -5.94622264	      1.35901960	     -7.63783801	      1.58084421	     -0.99654647
      3.29000000	      1.29663902	     -5.49971765	     -1.91690698	     -0.09355080	      0.92386155	      0.17497023	      8.48250463	     10.20075742	     -5.99148621	    -15.81987353	      2.51608283	     -6.93907612	     -0.22342383	    -10.35705973	     -6.94215831	    -56.69800863	     -7.18935213	      1.27316220	     -7.30145638	      1.66006650	     -1.58268564
      3.30000000	      1.07947843	     -5.57099460	     -1.72581040	     -0.10055907	      0.92315344	      0.17389798	      9.29553021	     10.17845712	     -6.29281376	    -15.94798200	      2.10046317	     -6.89620937	     -1.43363972	    -10.33731797	     -7.19073111	    -55.47691359	     -8.25075720	      1.18092950	     -6.94367814	      1.74362872	     -2.13537867
      3.31000000	      0.92838074	     -5.53439025	     -1.49588367	     -0.10768754	      0.92253097	      0.17267781	     10.02920812	     10.02790353	     -6.56286275	    -16.04154419	      1.78683205	     -6.77954725	     -2.67358732	    -10.16272854	     -7.36622901	    -54.08162689	     -9.13926527	      1.05980423	     -6.67872272	      1.69847021	     -2.75128232
      3.32000000	      0.75444110	     -5.51513507	     -1.27585012	     -0.11505444	      0.92179239	      0.17144066	     10.83586774	      9.88839558	     -6.85316186	    -16.19601236	      1.41905248	     -6.70351824	     -3.81833766	    -10.00891195	     -7.54310210	    -52.60928728	     -9.75448756	      0.95771395	     -6.42555461	      1.66681318	     -3.32028028
      3.33000000	      0.58916623	     -5.46745027	     -1.04236522	     -0.12264695	      0.92100291	      0.17012307	     11.66530809	      9.70604479	     -7.14949571	    -16.38276963	      1.05686802	     -6.63549438	     -4.89980406	     -9.81301398	     -7.68278874	    -51.04031274	    -10.09497438	      0.87343167	     -6.21596784	      1.60096919	     -3.89200539
      3.34000000	      0.42488555	     -5.40564889	     -0.79352080	     -0.13047559	      0.92014692	      0.16873582	     12.51600340	      9.49718229	     -7.44841888	    -16.57998452	      0.68079531	     -6.57930978	     -5.90423316	     -9.59160882	     -7.77094538	    -49.38634164	    -10.16170048	      0.81771630	     -6.04281638	      1.51716576	     -4.45403150
